# Blender 3.3.1
# www.blender.org
mtllib caixa.mtl
o Cube.001
v -1.000000 -1.000000 1.000000
v -1.000000 1.000000 1.000000
v -1.000000 -1.000000 -1.000000
v -1.000000 1.000000 -1.000000
v 1.000000 -1.000000 1.000000
v 1.000000 1.000000 1.000000
v 1.000000 -1.000000 -1.000000
v 1.000000 1.000000 -1.000000
v 1.000000 -1.000000 -1.000000
v 1.000000 -1.000000 -1.000000
v 1.000000 1.000000 -1.000000
v 1.000000 1.000000 -1.000000
v 1.000000 -1.000000 1.000000
v 1.000000 1.000000 1.000000
vn -0.5774 0.5774 0.5774
vn -0.5774 -0.5774 -0.5774
vn -0.5774 -0.5774 0.5774
vn -0.5774 0.5774 -0.5774
vn -0.0000 -0.0000 -1.0000
vn 1.0000 -0.0000 -0.0000
vn 0.7071 -0.0000 0.7071
vn -0.0000 -1.0000 -0.0000
vn -0.0000 1.0000 -0.0000
vt 0.505022 0.375022
vt 0.505022 0.624978
vt 0.255065 0.375022
vt 0.255065 0.624978
vt 0.505022 0.125065
vt 0.505022 0.874935
vt 0.255065 0.125065
vt 0.255065 0.874935
vt 0.005108 0.375022
vt 0.997123 0.375022
vt 0.005108 0.624978
vt 0.997123 0.624978
vt 0.754978 0.375022
vt 0.754978 0.624978
s 1
usemtl Material
f 2/2/1 3/3/2 1/1/3
f 4/4/4 9/9/5 3/3/2
f 12/12/6 13/13/7 10/10/6
f 14/14/7 1/1/3 13/13/7
f 7/7/8 1/1/3 3/3/2
f 4/4/4 6/6/9 8/8/9
f 2/2/1 4/4/4 3/3/2
f 4/4/4 11/11/5 9/9/5
f 12/12/6 14/14/7 13/13/7
f 14/14/7 2/2/1 1/1/3
f 7/7/8 5/5/8 1/1/3
f 4/4/4 2/2/1 6/6/9
